<mxfile host="Electron" agent="Mozilla/5.0 (Windows NT 10.0; Win64; x64) AppleWebKit/537.36 (KHTML, like Gecko) draw.io/27.0.9 Chrome/134.0.6998.205 Electron/35.4.0 Safari/537.36" version="27.0.9">
  <diagram name="Page-1" id="WtM2rvpEe2r1dK8oiGc4">
    <mxGraphModel dx="467" dy="517" grid="1" gridSize="10" guides="1" tooltips="1" connect="1" arrows="1" fold="1" page="1" pageScale="1" pageWidth="850" pageHeight="1100" math="0" shadow="0">
      <root>
        <mxCell id="0" />
        <mxCell id="1" parent="0" />
        <mxCell id="d_562cjp-MVupyLP1esu-3" style="edgeStyle=orthogonalEdgeStyle;rounded=0;orthogonalLoop=1;jettySize=auto;html=1;exitX=0.5;exitY=1;exitDx=0;exitDy=0;entryX=0.5;entryY=0;entryDx=0;entryDy=0;" edge="1" parent="1" source="d_562cjp-MVupyLP1esu-1" target="d_562cjp-MVupyLP1esu-2">
          <mxGeometry relative="1" as="geometry" />
        </mxCell>
        <mxCell id="d_562cjp-MVupyLP1esu-1" value="" style="image;html=1;image=img/lib/clip_art/computers/Network_128x128.png" vertex="1" parent="1">
          <mxGeometry x="190" y="90" width="80" height="80" as="geometry" />
        </mxCell>
        <mxCell id="d_562cjp-MVupyLP1esu-7" style="edgeStyle=orthogonalEdgeStyle;rounded=0;orthogonalLoop=1;jettySize=auto;html=1;exitX=1;exitY=0.5;exitDx=0;exitDy=0;" edge="1" parent="1" source="d_562cjp-MVupyLP1esu-2" target="d_562cjp-MVupyLP1esu-6">
          <mxGeometry relative="1" as="geometry" />
        </mxCell>
        <mxCell id="d_562cjp-MVupyLP1esu-2" value="LLM" style="rounded=1;whiteSpace=wrap;html=1;" vertex="1" parent="1">
          <mxGeometry x="190" y="240" width="80" height="40" as="geometry" />
        </mxCell>
        <mxCell id="d_562cjp-MVupyLP1esu-5" style="edgeStyle=orthogonalEdgeStyle;rounded=0;orthogonalLoop=1;jettySize=auto;html=1;entryX=0;entryY=0.5;entryDx=0;entryDy=0;" edge="1" parent="1" source="d_562cjp-MVupyLP1esu-4" target="d_562cjp-MVupyLP1esu-2">
          <mxGeometry relative="1" as="geometry" />
        </mxCell>
        <mxCell id="d_562cjp-MVupyLP1esu-4" value="Vector Database" style="rounded=1;whiteSpace=wrap;html=1;fillColor=#fff2cc;strokeColor=#d6b656;" vertex="1" parent="1">
          <mxGeometry x="10" y="240" width="100" height="40" as="geometry" />
        </mxCell>
        <mxCell id="d_562cjp-MVupyLP1esu-6" value="Embedding Model" style="rounded=1;whiteSpace=wrap;html=1;fillColor=#fff2cc;strokeColor=#d6b656;" vertex="1" parent="1">
          <mxGeometry x="320" y="240" width="110" height="40" as="geometry" />
        </mxCell>
        <mxCell id="d_562cjp-MVupyLP1esu-8" value="" style="ellipse;whiteSpace=wrap;html=1;aspect=fixed;fillColor=#fff2cc;strokeColor=#d6b656;" vertex="1" parent="1">
          <mxGeometry x="180" y="340" width="120" height="120" as="geometry" />
        </mxCell>
        <mxCell id="d_562cjp-MVupyLP1esu-9" value="PostgreSQL" style="shape=cylinder3;whiteSpace=wrap;html=1;boundedLbl=1;backgroundOutline=1;size=15;fillColor=#f5f5f5;strokeColor=#666666;fontColor=#333333;" vertex="1" parent="1">
          <mxGeometry x="205" y="360" width="70" height="80" as="geometry" />
        </mxCell>
        <mxCell id="d_562cjp-MVupyLP1esu-11" value="" style="endArrow=classic;html=1;rounded=0;exitX=0.5;exitY=1;exitDx=0;exitDy=0;entryX=1;entryY=0;entryDx=0;entryDy=0;" edge="1" parent="1" source="d_562cjp-MVupyLP1esu-6" target="d_562cjp-MVupyLP1esu-8">
          <mxGeometry width="50" height="50" relative="1" as="geometry">
            <mxPoint x="220" y="300" as="sourcePoint" />
            <mxPoint x="290" y="350" as="targetPoint" />
          </mxGeometry>
        </mxCell>
        <mxCell id="d_562cjp-MVupyLP1esu-13" value="" style="endArrow=classic;html=1;rounded=0;exitX=0.44;exitY=1.05;exitDx=0;exitDy=0;exitPerimeter=0;" edge="1" parent="1" source="d_562cjp-MVupyLP1esu-4" target="d_562cjp-MVupyLP1esu-8">
          <mxGeometry width="50" height="50" relative="1" as="geometry">
            <mxPoint x="385" y="290" as="sourcePoint" />
            <mxPoint x="292" y="368" as="targetPoint" />
          </mxGeometry>
        </mxCell>
        <mxCell id="d_562cjp-MVupyLP1esu-16" style="edgeStyle=orthogonalEdgeStyle;rounded=0;orthogonalLoop=1;jettySize=auto;html=1;exitX=0.5;exitY=1;exitDx=0;exitDy=0;entryX=0.417;entryY=-0.017;entryDx=0;entryDy=0;entryPerimeter=0;" edge="1" parent="1" source="d_562cjp-MVupyLP1esu-2" target="d_562cjp-MVupyLP1esu-8">
          <mxGeometry relative="1" as="geometry" />
        </mxCell>
        <mxCell id="d_562cjp-MVupyLP1esu-17" value="Supabase" style="ellipse;shape=cloud;whiteSpace=wrap;html=1;fillColor=#d5e8d4;strokeColor=#82b366;" vertex="1" parent="1">
          <mxGeometry x="185" y="470" width="120" height="80" as="geometry" />
        </mxCell>
        <mxCell id="d_562cjp-MVupyLP1esu-18" style="edgeStyle=orthogonalEdgeStyle;rounded=0;orthogonalLoop=1;jettySize=auto;html=1;exitX=0.5;exitY=1;exitDx=0;exitDy=0;entryX=0.483;entryY=0.113;entryDx=0;entryDy=0;entryPerimeter=0;" edge="1" parent="1" source="d_562cjp-MVupyLP1esu-8" target="d_562cjp-MVupyLP1esu-17">
          <mxGeometry relative="1" as="geometry" />
        </mxCell>
      </root>
    </mxGraphModel>
  </diagram>
</mxfile>
